<svg xmlns="http://www.w3.org/2000/svg" version="1.0" width="29pt" height="29pt" viewBox="0 0 304.000000 263.000000" preserveAspectRatio="xMidYMid meet">

<g transform="translate(0.000000,263.000000) scale(0.100000,-0.100000)" fill="#000000" stroke="none">
<path d="M1494 2540 c-34 -11 -104 -76 -104 -97 0 -26 30 -26 51 1 30 38 71 56 128 56 69 0 100 -30 180 -171 35 -63 71 -122 78 -131 15 -17 43 -14 43 4 0 5 -37 72 -82 149 -93 161 -122 188 -209 194 -30 3 -68 0 -85 -5z"></path>
<path d="M1350 2297 c-53 -15 -110 -55 -130 -91 -9 -17 -25 -27 -52 -31 -22 -4 -42 -4 -46 -1 -11 12 13 40 54 64 26 16 31 21 14 16 -33 -9 -78 -41 -90 -64 -14 -27 16 -42 60 -30 l32 9 -7 -50 c-6 -40 -4 -50 6 -47 26 6 359 179 359 186 0 10 -78 40 -120 46 -19 3 -55 0 -80 -7z"></path>
<path d="M1645 2276 c-6 -7 -100 -60 -210 -116 -206 -106 -312 -171 -322 -196 -8 -21 2 -27 28 -19 14 5 18 10 10 14 -22 14 37 51 309 198 158 86 231 133 205 133 -6 0 -15 -6 -20 -14z"></path>
<path d="M2022 2209 c-50 -15 -101 -73 -187 -215 -110 -180 -157 -239 -218 -274 -56 -32 -121 -39 -173 -20 -57 22 -32 -1 65 -58 127 -75 202 -97 308 -89 43 3 116 17 162 32 97 31 232 91 242 107 14 22 33 183 33 278 1 81 -3 102 -23 143 -39 79 -128 120 -209 96z"></path>
<path d="M1393 2097 c-106 -56 -193 -107 -193 -112 0 -6 13 -26 28 -44 l28 -34 182 93 c100 51 186 100 191 109 10 17 -16 82 -34 87 -5 2 -97 -43 -202 -99z"></path>
<path d="M1478 1996 c-262 -134 -302 -159 -278 -175 17 -12 83 -13 155 -1 45 6 40 7 -45 9 l-95 1 25 20 c14 10 117 67 230 125 167 87 278 150 250 143 -3 0 -112 -55 -242 -122z"></path>
<path d="M1475 1954 c-82 -41 -151 -78 -153 -83 -4 -13 91 -24 130 -16 53 12 105 42 132 77 23 31 50 88 44 93 -2 1 -70 -31 -153 -71z"></path>
<path d="M926 1846 c-79 -29 -126 -99 -126 -186 0 -101 48 -161 307 -376 194 -162 275 -254 347 -394 43 -84 96 -233 96 -271 0 -10 3 -19 7 -19 17 0 124 94 218 192 162 169 291 380 365 598 28 82 58 190 60 212 0 4 -33 -8 -74 -27 -118 -54 -253 -95 -330 -101 -135 -11 -281 56 -521 237 -176 134 -262 167 -349 135z"></path>
<path d="M2220 1527 c0 -15 174 -322 198 -349 8 -10 19 -18 24 -18 27 0 9 44 -83 203 -74 129 -107 177 -120 177 -11 0 -19 -6 -19 -13z"></path>
<path d="M761 1360 c-58 -103 -71 -148 -39 -138 17 6 137 208 138 231 0 10 -7 17 -18 17 -12 0 -37 -34 -81 -110z"></path>
<path d="M532 1413 c-26 -10 -61 -101 -73 -189 -28 -212 23 -430 140 -603 135 -199 383 -373 585 -412 87 -17 237 -12 330 10 87 21 221 81 266 120 l25 22 -42 -21 c-173 -84 -396 -61 -540 56 -59 48 -81 90 -97 183 -9 48 -25 100 -40 125 -14 24 -100 115 -192 203 -168 160 -205 184 -212 136 -3 -22 38 -112 82 -175 38 -57 12 -46 -58 25 -112 111 -160 258 -138 423 12 91 4 113 -36 97z"></path>
<path d="M2552 1338 c-7 -9 -7 -40 0 -100 8 -71 7 -102 -6 -165 -27 -131 -99 -252 -182 -303 -37 -23 -55 -22 -32 1 51 52 121 188 111 217 -12 32 -53 4 -211 -149 -92 -89 -179 -180 -195 -204 -15 -23 -32 -69 -39 -101 -22 -117 -29 -136 -70 -180 -54 -59 -167 -133 -259 -172 -99 -41 -243 -66 -338 -58 -41 3 -72 4 -69 0 14 -13 215 -35 333 -35 295 -1 538 84 744 261 237 205 342 438 328 730 -6 124 -22 191 -56 239 -24 33 -42 39 -59 19z"></path>
<path d="M313 583 c-121 -210 -123 -215 -123 -268 0 -78 48 -148 122 -180 56 -23 663 -23 672 0 3 9 0 18 -7 20 -6 2 -151 6 -322 7 -291 3 -312 4 -345 23 -44 27 -73 76 -74 129 -1 36 14 68 102 221 57 98 101 184 98 192 -13 32 -38 3 -123 -144z"></path>
<path d="M2685 731 c-3 -6 40 -91 97 -189 94 -162 103 -181 103 -229 0 -59 -22 -96 -76 -128 -31 -18 -55 -20 -312 -23 -254 -3 -278 -5 -275 -20 3 -15 30 -17 268 -20 291 -3 319 0 377 51 45 40 63 82 63 149 0 49 -9 68 -104 233 -96 168 -124 202 -141 176z"></path>
</g>
</svg>